<svg xmlns="http://www.w3.org/2000/svg" viewBox="0 0 160 120" role="img" aria-label="een kleed">
  <rect width="160" height="120" rx="14" fill="#eaf5ef"/>
  <g stroke="#0a7048" stroke-width="3">
    <line x1="34" y1="34" x2="34" y2="26"/><line x1="50" y1="34" x2="50" y2="26"/>
    <line x1="66" y1="34" x2="66" y2="26"/><line x1="82" y1="34" x2="82" y2="26"/>
    <line x1="98" y1="34" x2="98" y2="26"/><line x1="114" y1="34" x2="114" y2="26"/><line x1="126" y1="34" x2="126" y2="26"/>
    <line x1="34" y1="86" x2="34" y2="94"/><line x1="50" y1="86" x2="50" y2="94"/>
    <line x1="66" y1="86" x2="66" y2="94"/><line x1="82" y1="86" x2="82" y2="94"/>
    <line x1="98" y1="86" x2="98" y2="94"/><line x1="114" y1="86" x2="114" y2="94"/><line x1="126" y1="86" x2="126" y2="94"/>
  </g>
  <rect x="30" y="34" width="100" height="52" rx="4" fill="#f2934b"/>
  <rect x="40" y="42" width="80" height="36" rx="3" fill="none" stroke="#fdeede" stroke-width="3"/>
  <path d="M56 60 l8 -8 8 8 8 -8 8 8 8 -8 8 8" fill="none" stroke="#fdeede" stroke-width="3"/>
</svg>
